<svg width="150" height="171" viewBox="0 0 150 171" fill="none" xmlns="http://www.w3.org/2000/svg">
<path d="M38.0893 64.8305H144.159C148.159 64.8305 149.069 65.8304 149.069 69.7404C149.069 96.9604 149.069 124.187 149.069 151.42C149.069 162.89 141.349 170.62 129.889 170.62H26.5393C17.2793 170.62 9.9193 164.76 8.1493 155.95C7.86703 154.299 7.74646 152.625 7.7893 150.95C7.7893 124.67 7.7893 98.3805 7.7293 72.1005C7.69208 69.7869 7.35597 67.4878 6.7293 65.2605C4.6693 57.6205 2.42929 50.0205 0.269293 42.4105C-0.560707 39.5005 0.459294 37.6904 3.34929 36.8704L130.539 0.970473C134.009 -0.0295267 135.639 0.890459 136.609 4.33046C138.969 12.7038 141.326 21.0704 143.679 29.4304C144.619 32.7804 143.679 34.4304 140.329 35.4304L68.6293 55.8405L39.3993 64.1605C38.9393 64.2905 38.4893 64.4405 38.0293 64.5805L38.0893 64.8305ZM14.8993 97.1804V99.1804C14.8993 116.64 14.8993 134.104 14.8993 151.57C14.8993 159.02 19.4593 163.57 26.8993 163.57H129.869C137.329 163.57 141.949 158.98 141.949 151.57C141.949 134.05 141.949 116.53 141.949 99.0105C141.949 98.4305 141.899 97.8405 141.869 97.2105L14.8993 97.1804ZM141.899 72.0604H14.9993V89.9904H141.849L141.899 72.0604ZM73.0093 24.6605C72.8124 24.6176 72.6106 24.6007 72.4093 24.6104C64.2193 26.9204 56.0193 29.2204 47.8493 31.6104C47.1685 31.9082 46.628 32.4559 46.3393 33.1405C43.0193 40.7405 39.7593 48.3704 36.4793 55.9904C36.3293 56.3604 36.2293 56.7505 36.0893 57.1605C36.2488 57.1781 36.4098 57.1781 36.5693 57.1605C44.8193 54.8305 53.0693 52.5105 61.2993 50.1605C61.875 49.8978 62.3291 49.4259 62.5693 48.8405C63.6393 46.5305 64.5693 44.1805 65.6193 41.8405C68.0193 36.1405 70.4693 30.4605 72.9593 24.6605H73.0093ZM107.839 14.5805C107.399 14.6605 107.189 14.6804 106.989 14.7304C99.1293 17.0204 91.2693 19.2804 83.4293 21.6304C82.7494 21.9042 82.1989 22.4261 81.8893 23.0905C78.8893 29.8305 76.0393 36.5905 73.1293 43.3505L71.4293 47.3505C71.7856 47.3195 72.1397 47.266 72.4893 47.1904C79.9693 45.0204 87.4893 42.8604 94.9293 40.6104C95.5988 40.3049 96.1326 39.764 96.4293 39.0905C98.8793 33.9505 101.269 28.7804 103.669 23.6104L107.839 14.5805ZM129.559 8.08046C125.509 9.28046 121.629 10.3704 117.809 11.6204C116.955 11.9094 116.241 12.5092 115.809 13.3004C112.189 20.8904 108.669 28.5205 105.119 36.1405C104.899 36.6205 104.709 37.1405 104.409 37.8505L135.889 29.0105L129.559 8.08046ZM7.77929 42.8505L13.7793 63.7705C17.7793 62.6105 21.5393 61.4504 25.3593 60.3804C25.8682 60.267 26.3387 60.0228 26.7245 59.6721C27.1103 59.3214 27.398 58.8762 27.5593 58.3804C30.7093 50.9504 33.9293 43.5404 37.1193 36.1204C37.3293 35.6304 37.4993 35.1205 37.7993 34.3305L7.77929 42.8505Z" fill="black"/>
</svg>
