<svg width="128" height="152" viewBox="0 0 128 152" fill="none" xmlns="http://www.w3.org/2000/svg">
<path d="M63.5702 151.07C60.9021 151.018 58.3135 150.153 56.1502 148.59C37.0302 135.59 22.8402 121.32 12.7502 105.07C6.19456 94.7925 2.03205 83.173 0.570193 71.0704C-1.04947 57.2922 1.87602 43.3621 8.90155 31.3996C15.9271 19.437 26.668 10.0969 39.4902 4.80037C46.7843 1.68286 54.6279 0.0543128 62.5602 0.0103784H62.6202C76.023 -0.108686 89.1349 3.9185 100.16 11.5404C111.065 19.2085 119.285 30.1082 123.66 42.7004C125.927 48.9064 127.081 55.4635 127.07 62.0704C127.07 78.5604 122.52 93.1204 112.76 107.91C102.59 123.3 88.9102 136.63 70.9202 148.68C68.7646 150.195 66.2042 151.027 63.5702 151.07ZM62.5702 10.0704C55.9653 10.12 49.4359 11.4796 43.3602 14.0704C32.55 18.5401 23.4957 26.4187 17.5749 36.5075C11.6541 46.5963 9.19097 58.343 10.5602 69.9604C11.7002 80.2004 15.2102 89.9604 21.3002 99.7804C30.6302 114.78 43.8802 128.06 61.8202 140.29C63.2502 141.29 63.8802 141.29 65.3302 140.29C82.1802 129 94.9502 116.59 104.33 102.29C112.98 89.2004 117 76.3804 116.99 61.9204V61.7704C116.955 56.4134 115.998 51.1025 114.16 46.0704C110.48 35.4561 103.561 26.2643 94.3802 19.7904C85.0462 13.359 73.9549 9.96454 62.6202 10.0704H62.5702ZM63.6602 95.0704H63.5102C58.7761 95.0706 54.0906 94.115 49.7347 92.2609C45.3787 90.4069 41.4419 87.6925 38.1602 84.2804C31.8128 77.5854 28.283 68.706 28.3016 59.4804C28.3202 50.2548 31.8858 41.3896 38.2602 34.7204C41.6243 31.2632 45.6531 28.5224 50.1042 26.663C54.5552 24.8035 59.3365 23.8638 64.1602 23.9004H64.2702C83.3902 23.9604 99.0902 39.9004 99.2702 59.4604C99.2817 64.1533 98.3662 68.8023 96.5764 73.1406C94.7865 77.4788 92.1575 81.4208 88.8402 84.7404C85.5494 88.0477 81.6317 90.6649 77.3165 92.4387C73.0014 94.2125 68.3756 95.1072 63.7102 95.0704H63.6602ZM64.0602 34.0104C60.5847 33.9833 57.1395 34.6585 53.9313 35.9953C50.7231 37.3322 47.818 39.3033 45.3902 41.7904C43.0969 44.097 41.2876 46.8385 40.0683 49.854C38.8491 52.8694 38.2446 56.0981 38.2902 59.3504V59.6704C38.1961 66.2571 40.7127 72.6133 45.2902 77.3504C47.6535 79.7901 50.486 81.7264 53.6172 83.0428C56.7484 84.3592 60.1136 85.0285 63.5102 85.0104H63.6202C66.9588 85.0719 70.2753 84.4558 73.3691 83.1994C76.4629 81.943 79.2698 80.0723 81.6202 77.7004C86.3941 72.8861 89.0872 66.3902 89.1202 59.6104C88.9902 45.5304 77.7802 34.0504 64.1202 34.0104H64.0602Z" fill="black"/>
</svg>
