<svg width="144" height="129" viewBox="0 0 144 129" fill="none" xmlns="http://www.w3.org/2000/svg">
<path d="M143.419 26.3597V112.51C143.331 112.618 143.266 112.744 143.229 112.88C142.279 120.97 134.889 128.81 123.889 128.76C89.2193 128.59 54.5592 128.7 19.8892 128.69C8.58925 128.69 0.669245 120.79 0.669245 109.52C0.669245 88.0998 0.669245 66.6764 0.669245 45.2497C0.669245 39.5797 0.609245 33.9097 0.669245 28.2497C0.741653 23.7891 2.45348 19.5112 5.47822 16.2319C8.50296 12.9526 12.629 10.9015 17.0693 10.4697C21.5093 10.1097 25.9792 10.3097 30.4392 10.2597C30.9792 10.2597 31.5093 10.2097 32.1293 10.1797C32.1293 8.25972 32.1293 6.49975 32.1293 4.73975C32.1202 3.86832 32.3818 3.01554 32.8779 2.29908C33.3741 1.58262 34.0803 1.03779 34.8992 0.739753C35.5821 0.463887 36.3226 0.36141 37.0547 0.441474C37.7868 0.521539 38.4877 0.781648 39.0948 1.19858C39.7019 1.61552 40.1963 2.17629 40.5338 2.83085C40.8714 3.48541 41.0416 4.21338 41.0292 4.94974C41.0792 6.68974 41.0292 8.43972 41.0292 10.1797H67.5493C67.5493 8.34972 67.5493 6.59973 67.5493 4.83973C67.5418 3.98079 67.7936 3.13958 68.2717 2.42597C68.7498 1.71237 69.432 1.15955 70.2293 0.839729C70.8996 0.543559 71.6329 0.418316 72.3636 0.475227C73.0942 0.532138 73.7993 0.769444 74.4157 1.16584C75.0321 1.56224 75.5405 2.10534 75.8954 2.74653C76.2503 3.38771 76.4406 4.10693 76.4493 4.83973C76.4993 6.62973 76.4493 8.41972 76.4493 10.1797H102.979C102.979 8.43972 102.979 6.76975 102.979 5.10975C102.951 4.50695 103.045 3.90462 103.256 3.33924C103.467 2.77386 103.79 2.25717 104.207 1.82047C104.623 1.38377 105.124 1.03611 105.679 0.798591C106.234 0.561068 106.831 0.438606 107.434 0.438606C108.038 0.438606 108.635 0.561068 109.19 0.798591C109.744 1.03611 110.245 1.38377 110.662 1.82047C111.078 2.25717 111.402 2.77386 111.613 3.33924C111.824 3.90462 111.918 4.50695 111.889 5.10975C111.889 6.76975 111.889 8.42974 111.889 10.2297H113.549C117.319 10.2297 121.079 10.2297 124.849 10.2297C128.878 10.2142 132.8 11.519 136.017 13.9444C139.233 16.3698 141.566 19.7824 142.659 23.6597C142.969 24.5797 143.159 25.4697 143.419 26.3597ZM9.58924 55.0697V109.49C9.58924 115.81 13.5193 119.74 19.8493 119.74H124.249C130.569 119.74 134.489 115.8 134.499 109.47V55.0697H9.58924ZM103.029 19.2597H76.4992C76.4992 20.9997 76.4992 22.6197 76.4992 24.2597C76.4992 27.0697 74.5492 29.1198 71.9992 29.0798C71.3929 29.0659 70.7956 28.9304 70.2426 28.6813C69.6896 28.4323 69.1923 28.0747 68.78 27.6299C68.3678 27.185 68.0491 26.6619 67.8429 26.0916C67.6366 25.5213 67.547 24.9153 67.5793 24.3097C67.5793 22.6497 67.5793 20.9897 67.5793 19.2597H41.0592C41.0592 20.9197 41.0592 22.4897 41.0592 24.0597C41.0592 26.9997 39.1893 29.0597 36.5993 29.0597C34.0093 29.0597 32.1493 27.0597 32.1393 24.0597C32.1393 22.4597 32.1393 20.8497 32.1393 19.2497C27.2793 19.2497 22.6293 18.9997 18.0093 19.3197C13.0093 19.6597 9.62925 23.7497 9.59925 28.7597C9.59925 34.1497 9.59925 39.5397 9.59925 44.9297C9.61661 45.2848 9.65333 45.6387 9.70925 45.9898H134.509V44.5597C134.509 39.4531 134.509 34.3431 134.509 29.2297C134.509 23.2297 130.509 19.2297 124.509 19.1497C120.789 19.1497 117.069 19.1497 113.349 19.1497C112.949 19.1497 112.539 19.1998 111.999 19.2398V24.0697C111.999 27.0697 110.199 29.0697 107.589 29.0697C104.979 29.0697 103.089 26.9898 103.079 23.9598C103.019 22.4498 103.029 20.9197 103.029 19.2897V19.2597Z" fill="black"/>
</svg>
